<svg xmlns="http://www.w3.org/2000/svg" style="display: none" width="0" height="0">
  <!-- Search Icon -->
  <symbol id="icon-search" viewBox="0 0 24 24" fill="none">
    <circle cx="11" cy="11" r="8" stroke="currentColor" stroke-width="2"/>
    <path d="M21 21L16.65 16.65" stroke="currentColor" stroke-width="2" stroke-linecap="round"/>
  </symbol>

  <!-- Analytics / Chart Icon -->
  <symbol id="icon-analytics" viewBox="0 0 24 24" fill="none">
    <path d="M18 20V10M12 20V4M6 20V14" stroke="currentColor" stroke-width="2" stroke-linecap="round"/>
  </symbol>

  <!-- Bookmark Icon (Outline) -->
  <symbol id="icon-bookmark" viewBox="0 0 24 24" fill="none">
    <path d="M19 21L12 16L5 21V5C5 4.46957 5.21071 3.96086 5.58579 3.58579C5.96086 3.21071 6.46957 3 7 3H17C17.5304 3 18.0391 3.21071 18.4142 3.58579C18.7893 3.96086 19 4.46957 19 5V21Z" stroke="currentColor" stroke-width="2" stroke-linecap="round" stroke-linejoin="round"/>
  </symbol>

  <!-- Bookmark Icon (Filled) -->
  <symbol id="icon-bookmark-filled" viewBox="0 0 24 24" fill="currentColor">
    <path d="M19 21L12 16L5 21V5C5 4.46957 5.21071 3.96086 5.58579 3.58579C5.96086 3.21071 6.46957 3 7 3H17C17.5304 3 18.0391 3.21071 18.4142 3.58579C18.7893 3.96086 19 4.46957 19 5V21Z" stroke="currentColor" stroke-width="2" stroke-linecap="round" stroke-linejoin="round"/>
  </symbol>

  <!-- Chevron Down Icon -->
  <symbol id="icon-chevron-down" viewBox="0 0 24 24" fill="none">
    <path d="M6 9L12 15L18 9" stroke="currentColor" stroke-width="2" stroke-linecap="round" stroke-linejoin="round"/>
  </symbol>

  <!-- Moon Icon (Dark Theme) -->
  <symbol id="icon-moon" viewBox="0 0 24 24" fill="none">
    <path d="M21 12.79A9 9 0 1111.21 3 7 7 0 0021 12.79z" stroke="currentColor" stroke-width="2" stroke-linecap="round" stroke-linejoin="round"/>
  </symbol>

  <!-- Sun Icon (Light Theme) -->
  <symbol id="icon-sun" viewBox="0 0 24 24" fill="none">
    <circle cx="12" cy="12" r="5" stroke="currentColor" stroke-width="2"/>
    <path d="M12 1V3M12 21V23M4.22 4.22L5.64 5.64M18.36 18.36L19.78 19.78M1 12H3M21 12H23M4.22 19.78L5.64 18.36M18.36 5.64L19.78 4.22" stroke="currentColor" stroke-width="2" stroke-linecap="round"/>
  </symbol>

  <!-- Close / X Icon -->
  <symbol id="icon-close" viewBox="0 0 24 24" fill="none">
    <path d="M18 6L6 18M6 6L18 18" stroke="currentColor" stroke-width="2" stroke-linecap="round"/>
  </symbol>

  <!-- Arrow Right Icon -->
  <symbol id="icon-arrow-right" viewBox="0 0 24 24" fill="none">
    <path d="M5 12H19M19 12L12 5M19 12L12 19" stroke="currentColor" stroke-width="2" stroke-linecap="round" stroke-linejoin="round"/>
  </symbol>

  <!-- Grid View Icon -->
  <symbol id="icon-grid" viewBox="0 0 24 24" fill="none">
    <rect x="3" y="3" width="7" height="7" stroke="currentColor" stroke-width="2"/>
    <rect x="14" y="3" width="7" height="7" stroke="currentColor" stroke-width="2"/>
    <rect x="3" y="14" width="7" height="7" stroke="currentColor" stroke-width="2"/>
    <rect x="14" y="14" width="7" height="7" stroke="currentColor" stroke-width="2"/>
  </symbol>

  <!-- List View Icon -->
  <symbol id="icon-list" viewBox="0 0 24 24" fill="none">
    <path d="M8 6H21M8 12H21M8 18H21M3 6H3.01M3 12H3.01M3 18H3.01" stroke="currentColor" stroke-width="2" stroke-linecap="round"/>
  </symbol>

  <!-- Location / Pin Icon -->
  <symbol id="icon-location" viewBox="0 0 24 24" fill="none">
    <path d="M21 10C21 17 12 23 12 23C12 23 3 17 3 10C3 5.02944 7.02944 1 12 1C16.9706 1 21 5.02944 21 10Z" stroke="currentColor" stroke-width="2"/>
    <circle cx="12" cy="10" r="3" stroke="currentColor" stroke-width="2"/>
  </symbol>

  <!-- Dollar / Salary Icon -->
  <symbol id="icon-dollar" viewBox="0 0 24 24" fill="none">
    <path d="M12 1V23M17 5H9.5C8.57174 5 7.6815 5.36875 7.02513 6.02513C6.36875 6.6815 6 7.57174 6 8.5C6 9.42826 6.36875 10.3185 7.02513 10.9749C7.6815 11.6313 8.57174 12 9.5 12H14.5C15.4283 12 16.3185 12.3687 16.9749 13.0251C17.6313 13.6815 18 14.5717 18 15.5C18 16.4283 17.6313 17.3185 16.9749 17.9749C16.3185 18.6313 15.4283 19 14.5 19H6" stroke="currentColor" stroke-width="2" stroke-linecap="round" stroke-linejoin="round"/>
  </symbol>

  <!-- Arrow Left Icon -->
  <symbol id="icon-arrow-left" viewBox="0 0 24 24" fill="none">
    <path d="M15 18L9 12L15 6" stroke="currentColor" stroke-width="2" stroke-linecap="round" stroke-linejoin="round"/>
  </symbol>

  <!-- Briefcase / Jobs Icon -->
  <symbol id="icon-briefcase" viewBox="0 0 24 24" fill="none">
    <rect x="2" y="7" width="20" height="14" rx="2" stroke="currentColor" stroke-width="2"/>
    <path d="M16 7V5C16 3.89543 15.1046 3 14 3H10C8.89543 3 8 3.89543 8 5V7" stroke="currentColor" stroke-width="2"/>
  </symbol>

  <!-- Globe / Countries Icon -->
  <symbol id="icon-globe" viewBox="0 0 24 24" fill="none">
    <circle cx="12" cy="12" r="10" stroke="currentColor" stroke-width="2"/>
    <path d="M2 12H22M12 2C14.5 4.5 16 8 16 12C16 16 14.5 19.5 12 22C9.5 19.5 8 16 8 12C8 8 9.5 4.5 12 2Z" stroke="currentColor" stroke-width="2"/>
  </symbol>

  <!-- Monitor / Remote Icon -->
  <symbol id="icon-monitor" viewBox="0 0 24 24" fill="none">
    <rect x="2" y="3" width="20" height="14" rx="2" stroke="currentColor" stroke-width="2"/>
    <path d="M8 21H16M12 17V21" stroke="currentColor" stroke-width="2" stroke-linecap="round"/>
  </symbol>

  <!-- Trend Up Icon -->
  <symbol id="icon-trend-up" viewBox="0 0 24 24" fill="none">
    <path d="M18 15L12 9L6 15" stroke="currentColor" stroke-width="2" stroke-linecap="round" stroke-linejoin="round"/>
  </symbol>

  <!-- Donut / Pie Chart -->
  <symbol id="icon-donut" viewBox="0 0 100 100" fill="none">
    <!-- This is a placeholder; actual donut chart is inline -->
  </symbol>

  <!-- Eye Icon (View) -->
  <symbol id="icon-eye" viewBox="0 0 24 24" fill="none">
    <path d="M1 12C1 12 5 4 12 4C19 4 23 12 23 12C23 12 19 20 12 20C5 20 1 12 1 12Z" stroke="currentColor" stroke-width="2"/>
    <circle cx="12" cy="12" r="3" stroke="currentColor" stroke-width="2"/>
  </symbol>

  <!-- Delete / Trash Icon -->
  <symbol id="icon-trash" viewBox="0 0 24 24" fill="none">
    <path d="M3 6H5H21M19 6V20C19 21.1046 18.1046 22 17 22H7C5.89543 22 5 21.1046 5 20V6M8 6V4C8 2.89543 8.89543 2 10 2H14C15.1046 2 16 2.89543 16 4V6" stroke="currentColor" stroke-width="2" stroke-linecap="round" stroke-linejoin="round"/>
  </symbol>

  <!-- Code / Frontend Developer Icon -->
  <symbol id="icon-code" viewBox="0 0 24 24" fill="none">
    <path d="M16 18L22 12L16 6M8 6L2 12L8 18" stroke="currentColor" stroke-width="2" stroke-linecap="round" stroke-linejoin="round"/>
  </symbol>

  <!-- Server / Backend Icon -->
  <symbol id="icon-server" viewBox="0 0 24 24" fill="none">
    <rect x="2" y="2" width="20" height="8" rx="2" stroke="currentColor" stroke-width="2"/>
    <rect x="2" y="14" width="20" height="8" rx="2" stroke="currentColor" stroke-width="2"/>
    <circle cx="6" cy="6" r="1" fill="currentColor"/>
    <circle cx="6" cy="18" r="1" fill="currentColor"/>
  </symbol>

  <!-- Data Scientist / Stats Icon -->
  <symbol id="icon-stats" viewBox="0 0 24 24" fill="none">
    <path d="M18 20V10M12 20V4M6 20V14" stroke="currentColor" stroke-width="2" stroke-linecap="round"/>
  </symbol>

  <!-- Settings / DevOps Icon -->
  <symbol id="icon-settings" viewBox="0 0 24 24" fill="none">
    <circle cx="12" cy="12" r="3" stroke="currentColor" stroke-width="2"/>
    <path d="M19.4 15C19.2669 15.3016 19.2272 15.6362 19.286 15.9606C19.3448 16.285 19.4995 16.5843 19.73 16.82L19.79 16.88C19.976 17.0657 20.1235 17.2863 20.2241 17.5291C20.3248 17.7719 20.3766 18.0322 20.3766 18.295C20.3766 18.5578 20.3248 18.8181 20.2241 19.0609C20.1235 19.3037 19.976 19.5243 19.79 19.71C19.6043 19.896 19.3837 20.0435 19.1409 20.1441C18.8981 20.2448 18.6378 20.2966 18.375 20.2966C18.1122 20.2966 17.8519 20.2448 17.6091 20.1441C17.3663 20.0435 17.1457 19.896 16.96 19.71L16.9 19.65C16.6643 19.4195 16.365 19.2648 16.0406 19.206C15.7162 19.1472 15.3816 19.1869 15.08 19.32C14.7842 19.4468 14.532 19.6572 14.3543 19.9255C14.1766 20.1938 14.0813 20.5082 14.08 20.83V21C14.08 21.5304 13.8693 22.0391 13.4942 22.4142C13.1191 22.7893 12.6104 23 12.08 23C11.5496 23 11.0409 22.7893 10.6658 22.4142C10.2907 22.0391 10.08 21.5304 10.08 21V20.91C10.0723 20.579 9.96512 20.258 9.77251 19.9887C9.5799 19.7194 9.31074 19.5143 9 19.4C8.69838 19.2669 8.36381 19.2272 8.03941 19.286C7.71502 19.3448 7.41568 19.4995 7.18 19.73L7.12 19.79C6.93425 19.976 6.71368 20.1235 6.47088 20.2241C6.22808 20.3248 5.96783 20.3766 5.705 20.3766C5.44217 20.3766 5.18192 20.3248 4.93912 20.2241C4.69632 20.1235 4.47575 19.976 4.29 19.79C4.10405 19.6043 3.95653 19.3837 3.85588 19.1409C3.75523 18.8981 3.70343 18.6378 3.70343 18.375C3.70343 18.1122 3.75523 17.8519 3.85588 17.6091C3.95653 17.3663 4.10405 17.1457 4.29 16.96L4.35 16.9C4.58054 16.6643 4.73519 16.365 4.794 16.0406C4.85282 15.7162 4.81312 15.3816 4.68 15.08C4.55324 14.7842 4.34276 14.532 4.07447 14.3543C3.80618 14.1766 3.49179 14.0813 3.17 14.08H3C2.46957 14.08 1.96086 13.8693 1.58579 13.4942C1.21071 13.1191 1 12.6104 1 12.08C1 11.5496 1.21071 11.0409 1.58579 10.6658C1.96086 10.2907 2.46957 10.08 3 10.08H3.09C3.42099 10.0723 3.742 9.96512 4.0113 9.77251C4.28059 9.5799 4.48572 9.31074 4.6 9C4.73312 8.69838 4.77282 8.36381 4.714 8.03941C4.65519 7.71502 4.50054 7.41568 4.27 7.18L4.21 7.12C4.02405 6.93425 3.87653 6.71368 3.77588 6.47088C3.67523 6.22808 3.62343 5.96783 3.62343 5.705C3.62343 5.44217 3.67523 5.18192 3.77588 4.93912C3.87653 4.69632 4.02405 4.47575 4.21 4.29C4.39575 4.10405 4.61632 3.95653 4.85912 3.85588C5.10192 3.75523 5.36217 3.70343 5.625 3.70343C5.88783 3.70343 6.14808 3.75523 6.39088 3.85588C6.63368 3.95653 6.85425 4.10405 7.04 4.29L7.1 4.35C7.33568 4.58054 7.63502 4.73519 7.95941 4.794C8.28381 4.85282 8.61838 4.81312 8.92 4.68H9C9.29577 4.55324 9.54802 4.34276 9.72569 4.07447C9.90337 3.80618 9.99872 3.49179 10 3.17V3C10 2.46957 10.2107 1.96086 10.5858 1.58579C10.9609 1.21071 11.4696 1 12 1C12.5304 1 13.0391 1.21071 13.4142 1.58579C13.7893 1.96086 14 2.46957 14 3V3.09C14.0013 3.41179 14.0966 3.72618 14.2743 3.99447C14.452 4.26276 14.7042 4.47324 15 4.6C15.3016 4.73312 15.6362 4.77282 15.9606 4.714C16.285 4.65519 16.5843 4.50054 16.82 4.27L16.88 4.21C17.0657 4.02405 17.2863 3.87653 17.5291 3.77588C17.7719 3.67523 18.0322 3.62343 18.295 3.62343C18.5578 3.62343 18.8181 3.67523 19.0609 3.77588C19.3037 3.87653 19.5243 4.02405 19.71 4.21C19.896 4.39575 20.0435 4.61632 20.1441 4.85912C20.2448 5.10192 20.2966 5.36217 20.2966 5.625C20.2966 5.88783 20.2448 6.14808 20.1441 6.39088C20.0435 6.63368 19.896 6.85425 19.71 7.04L19.65 7.1C19.4195 7.33568 19.2648 7.63502 19.206 7.95941C19.1472 8.28381 19.1869 8.61838 19.32 8.92V9C19.4468 9.29577 19.6572 9.54802 19.9255 9.72569C20.1938 9.90337 20.5082 9.99872 20.83 10H21C21.5304 10 22.0391 10.2107 22.4142 10.5858C22.7893 10.9609 23 11.4696 23 12C23 12.5304 22.7893 13.0391 22.4142 13.4142C22.0391 13.7893 21.5304 14 21 14H20.91C20.5882 14.0013 20.2738 14.0966 20.0055 14.2743C19.7372 14.452 19.5268 14.7042 19.4 15Z" stroke="currentColor" stroke-width="2" stroke-linecap="round" stroke-linejoin="round"/>
  </symbol>

  <!-- Checkmark / Success Icon -->
  <symbol id="icon-checkmark" viewBox="0 0 24 24" fill="none">
    <path d="M22 11.08V12C21.9988 14.1564 21.3005 16.2547 20.0093 17.9818C18.7182 19.709 16.9033 20.9725 14.8354 21.5839C12.7674 22.1953 10.5573 22.1219 8.53447 21.3746C6.51168 20.6273 4.78465 19.2461 3.61096 17.4371C2.43727 15.628 1.87979 13.4881 2.02168 11.3363C2.16356 9.18455 2.99721 7.13631 4.39828 5.49706C5.79935 3.85781 7.69279 2.71537 9.79619 2.24013C11.8996 1.7649 14.1003 1.98232 16.07 2.85999" stroke="currentColor" stroke-width="2" stroke-linecap="round" stroke-linejoin="round"/>
    <path d="M22 4L12 14.01L9 11.01" stroke="currentColor" stroke-width="2" stroke-linecap="round" stroke-linejoin="round"/>
  </symbol>

  <!-- Calendar / Date Icon -->
  <symbol id="icon-calendar" viewBox="0 0 24 24" fill="none">
    <rect x="3" y="4" width="18" height="18" rx="2" stroke="currentColor" stroke-width="2"/>
    <path d="M16 2V6M8 2V6M3 10H21" stroke="currentColor" stroke-width="2" stroke-linecap="round"/>
  </symbol>

  <!-- External Link / Arrow Icon -->
  <symbol id="icon-external-link" viewBox="0 0 24 24" fill="none">
    <path d="M18 13V19C18 20.1046 17.1046 21 16 21H5C3.89543 21 3 20.1046 3 19V8C3 6.89543 3.89543 6 5 6H11M15 3H21M21 3V9M21 3L10 14" stroke="currentColor" stroke-width="2" stroke-linecap="round" stroke-linejoin="round"/>
  </symbol>

  <!-- Share Icon -->
  <symbol id="icon-share" viewBox="0 0 24 24" fill="none">
    <circle cx="18" cy="5" r="3" stroke="currentColor" stroke-width="2"/>
    <circle cx="6" cy="12" r="3" stroke="currentColor" stroke-width="2"/>
    <circle cx="18" cy="19" r="3" stroke="currentColor" stroke-width="2"/>
    <path d="M8.59 13.51L15.42 17.49M15.41 6.51L8.59 10.49" stroke="currentColor" stroke-width="2"/>
  </symbol>

  <!-- Alert / Error Icon -->
  <symbol id="icon-alert" viewBox="0 0 24 24" fill="none">
    <circle cx="12" cy="12" r="10" stroke="currentColor" stroke-width="2"/>
    <path d="M12 8V12M12 16H12.01" stroke="currentColor" stroke-width="2" stroke-linecap="round"/>
  </symbol>

  <!-- Plus Icon (for Roles) -->
  <symbol id="icon-plus" viewBox="0 0 24 24" fill="none">
    <path d="M12 5V19M5 12H19" stroke="currentColor" stroke-width="2" stroke-linecap="round"/>
  </symbol>
</svg>
